<svg width="12" height="13" viewBox="0 0 12 13" fill="none" xmlns="http://www.w3.org/2000/svg">
<g id="Vector">
<path d="M4.52941 10.5948C2 11.4184 2 9.12424 1 8.83012L4.52941 10.5948ZM8.05882 11.7713V9.71247C8.05882 9.12424 8.11765 8.88894 7.76471 8.536C9.41177 8.35953 11 7.71247 11 5.00659C10.9993 4.30363 10.725 3.62854 10.2353 3.12424C10.465 2.51363 10.4438 1.83696 10.1765 1.24189C10.1765 1.24189 9.52941 1.06542 8.11765 2.00659C6.92191 1.69517 5.66633 1.69517 4.47059 2.00659C3.05882 1.06542 2.41176 1.24189 2.41176 1.24189C2.1444 1.83696 2.12325 2.51363 2.35294 3.12424C1.86321 3.62854 1.58895 4.30363 1.58824 5.00659C1.58824 7.71247 3.17647 8.35953 4.82353 8.536C4.47059 8.88894 4.47059 9.24189 4.52941 9.71247V11.7713" fill="#0F172A"/>
<path d="M8.05882 11.7713V9.71247C8.05882 9.12424 8.11765 8.88894 7.76471 8.536C9.41177 8.35953 11 7.71247 11 5.00659C10.9993 4.30363 10.725 3.62854 10.2353 3.12424C10.465 2.51363 10.4438 1.83696 10.1765 1.24189C10.1765 1.24189 9.52941 1.06542 8.11765 2.00659C6.92191 1.69517 5.66633 1.69517 4.47059 2.00659C3.05882 1.06542 2.41176 1.24189 2.41176 1.24189C2.1444 1.83696 2.12325 2.51363 2.35294 3.12424C1.86321 3.62854 1.58895 4.30363 1.58824 5.00659C1.58824 7.71247 3.17647 8.35953 4.82353 8.536C4.47059 8.88894 4.47059 9.24188 4.52941 9.71247V11.7713M4.52941 10.5948C2 11.4184 2 9.12424 1 8.83012L4.52941 10.5948Z" stroke="#CBD5E1" stroke-linecap="round" stroke-linejoin="round"/>
</g>
</svg>
