<svg width="15" height="15" viewBox="0 0 15 15" fill="none" xmlns="http://www.w3.org/2000/svg">
<g id="Frame" clip-path="url(#clip0_3_531)">
<path id="Vector" d="M11.25 2.5H3.75C3.05964 2.5 2.5 3.05964 2.5 3.75V11.25C2.5 11.9404 3.05964 12.5 3.75 12.5H11.25C11.9404 12.5 12.5 11.9404 12.5 11.25V3.75C12.5 3.05964 11.9404 2.5 11.25 2.5Z" fill="#0F172A" stroke="#CBD5E1" stroke-linecap="round" stroke-linejoin="round"/>
<path id="Vector_2" d="M5 6.875V10" stroke="#CBD5E1" stroke-linecap="round" stroke-linejoin="round"/>
<path id="Vector_3" d="M5 5V5.00625" stroke="#CBD5E1" stroke-linecap="round" stroke-linejoin="round"/>
<path id="Vector_4" d="M7.5 10V6.875" stroke="#CBD5E1" stroke-linecap="round" stroke-linejoin="round"/>
<path id="Vector_5" d="M10 10V8.125C10 7.79348 9.8683 7.47554 9.63388 7.24112C9.39946 7.0067 9.08152 6.875 8.75 6.875C8.41848 6.875 8.10054 7.0067 7.86612 7.24112C7.6317 7.47554 7.5 7.79348 7.5 8.125" stroke="#CBD5E1" stroke-linecap="round" stroke-linejoin="round"/>
</g>
<defs>
<clipPath id="clip0_3_531">
<rect width="15" height="15" fill="white"/>
</clipPath>
</defs>
</svg>
