<svg width="15" height="15" viewBox="0 0 15 15" fill="none" xmlns="http://www.w3.org/2000/svg">
<g id="Frame" clip-path="url(#clip0_3_528)">
<path id="Vector" d="M13.75 2.50626C13.125 2.81251 12.5125 2.93688 11.875 3.12501C11.1744 2.33438 10.1356 2.29063 9.1375 2.66438C8.13937 3.03813 7.48562 3.95188 7.5 5.00001V5.62501C5.47187 5.67688 3.66562 4.75313 2.5 3.12501C2.5 3.12501 -0.11375 7.77063 5 10C3.83 10.7794 2.66312 11.305 1.25 11.25C3.3175 12.3769 5.57062 12.7644 7.52125 12.1981C9.75875 11.5481 11.5975 9.87126 12.3031 7.35938C12.5136 6.59543 12.6181 5.80617 12.6137 5.01376C12.6125 4.85813 13.5575 3.28126 13.75 2.50563V2.50626Z" fill="#0F172A" stroke="#CBD5E1" stroke-linecap="round" stroke-linejoin="round"/>
</g>
<defs>
<clipPath id="clip0_3_528">
<rect width="15" height="15" fill="white"/>
</clipPath>
</defs>
</svg>
